<?xml version="1.0" encoding="utf-8"?>
<svg version="1.0" id="Ebene_1" xmlns="http://www.w3.org/2000/svg" xmlns:xlink="http://www.w3.org/1999/xlink" x="0px" y="0px"
	 width="60px" height="60px" viewBox="0 0 60 60" enable-background="new 0 0 60 60" xml:space="preserve">
<path fill="#D91B5C" stroke="#FFFFFF" stroke-miterlimit="10" d="M52.5,25C52.5,37.424,30,57.5,30,57.5S7.5,37.424,7.5,25
	C7.5,12.574,17.574,2.5,30,2.5C42.426,2.5,52.5,12.574,52.5,25z"/>
<path fill="#FFFFFF" d="M44.975,24.534l-0.004-0.04l-0.033-0.021c-0.635-0.385-1.471-0.604-2.285-0.619
	c-0.016-0.108-0.119-0.874-0.131-0.983c0.779-0.222,1.527-0.645,2.053-1.187l0.025-0.025l-0.008-0.04
	c-0.039-0.291-0.148-0.695-0.25-0.939l-0.016-0.039l-0.041-0.011c-0.717-0.205-1.576-0.199-2.365,0
	c-0.039-0.104-0.33-0.805-0.369-0.904c0.693-0.423,1.303-1.023,1.668-1.675l0.021-0.031l-0.016-0.042
	c-0.104-0.249-0.316-0.61-0.484-0.841l-0.023-0.03h-0.045c-0.736-0.017-1.561,0.21-2.287,0.6c-0.064-0.09-0.539-0.705-0.604-0.791
	c0.566-0.582,1-1.324,1.188-2.049l0.008-0.039l-0.027-0.03c-0.168-0.224-0.461-0.521-0.682-0.695l-0.031-0.022l-0.043,0.006
	c-0.727,0.184-1.463,0.619-2.049,1.182c-0.088-0.068-0.703-0.55-0.791-0.621c0.393-0.692,0.619-1.489,0.619-2.226
	c0-0.022-0.002-0.101-0.002-0.101l-0.033-0.023c-0.225-0.179-0.584-0.384-0.846-0.489l-0.035-0.014l-0.033,0.017
	c-0.651,0.364-1.25,0.969-1.668,1.665c-0.105-0.042-0.854-0.356-0.949-0.398c0.096-0.391,0.158-0.795,0.158-1.197
	c0-0.404-0.049-0.803-0.158-1.165l-0.012-0.037l-0.039-0.015c-0.244-0.107-0.641-0.215-0.934-0.257l-0.041-0.007l-0.027,0.029
	c-0.539,0.521-0.963,1.265-1.188,2.045c-0.109-0.019-0.883-0.113-1-0.126c-0.01-0.81-0.229-1.637-0.613-2.282l-0.02-0.038h-0.041
	c-0.279-0.034-0.701-0.034-0.974,0h-0.043l-0.02,0.038c-0.382,0.636-0.598,1.467-0.611,2.279c-0.114,0.016-0.898,0.11-1.011,0.129
	c-0.225-0.783-0.649-1.53-1.186-2.053l-0.03-0.028l-0.044,0.007c-0.288,0.043-0.688,0.151-0.935,0.251l-0.038,0.015L25.588,10.7
	c-0.101,0.37-0.156,0.772-0.156,1.183c0,0.395,0.063,0.801,0.156,1.187c-0.099,0.045-0.852,0.366-0.953,0.409
	c-0.423-0.696-1.022-1.305-1.671-1.672l-0.035-0.022l-0.042,0.015c-0.25,0.111-0.61,0.318-0.84,0.489l-0.035,0.022v0.109
	c0,0.728,0.225,1.529,0.613,2.226c-0.084,0.069-0.652,0.512-0.736,0.581c-0.583-0.564-1.323-0.998-2.052-1.188L19.8,14.032
	l-0.028,0.026c-0.224,0.168-0.524,0.461-0.696,0.686l-0.025,0.031l0.009,0.04c0.183,0.723,0.616,1.462,1.179,2.053
	c-0.061,0.087-0.555,0.729-0.624,0.819c-0.706-0.397-1.529-0.631-2.283-0.619l-0.038,0.004l-0.024,0.03
	c-0.166,0.221-0.374,0.574-0.488,0.844l-0.016,0.036l0.02,0.038c0.361,0.649,0.973,1.255,1.671,1.676
	c-0.038,0.1-0.323,0.796-0.367,0.899c-0.803-0.2-1.658-0.202-2.371,0.006l-0.039,0.01l-0.015,0.036
	c-0.106,0.249-0.214,0.641-0.255,0.94l-0.005,0.041l0.028,0.03c0.521,0.535,1.27,0.96,2.051,1.178
	c-0.017,0.11-0.118,0.882-0.131,0.986c-0.813,0.015-1.648,0.231-2.287,0.613l-0.035,0.022l-0.004,0.04
	C15.01,24.64,15,24.814,15,24.989s0.01,0.342,0.026,0.484l0.004,0.042l0.035,0.017c0.638,0.381,1.467,0.601,2.284,0.611
	c0.015,0.113,0.125,0.903,0.138,1.015c-0.784,0.229-1.525,0.656-2.045,1.191l-0.028,0.033l0.003,0.039
	c0.046,0.292,0.153,0.692,0.254,0.938l0.016,0.037l0.038,0.01c0.722,0.206,1.577,0.198,2.372,0c0.041,0.104,0.348,0.804,0.39,0.904
	c-0.696,0.416-1.303,1.019-1.671,1.669l-0.018,0.037l0.013,0.039c0.107,0.252,0.32,0.615,0.489,0.838l0.026,0.033l0.036,0.002
	c0.747,0.012,1.571-0.211,2.287-0.604c0.068,0.084,0.551,0.713,0.615,0.799c-0.562,0.574-0.998,1.313-1.184,2.047l-0.01,0.037
	l0.023,0.031c0.172,0.221,0.47,0.516,0.687,0.693l0.033,0.027l0.038-0.016c0.725-0.178,1.459-0.611,2.051-1.176
	c0.09,0.068,0.715,0.551,0.808,0.619c-0.385,0.707-0.61,1.514-0.61,2.248v0.082l0.037,0.027c0.217,0.164,0.573,0.367,0.838,0.488
	l0.036,0.014l0.039-0.02c0.653-0.363,1.256-0.975,1.679-1.678c0.097,0.037,0.785,0.318,0.886,0.359
	c-0.099,0.385-0.155,0.785-0.155,1.178c0,0.414,0.055,0.818,0.159,1.182l0.009,0.039l0.041,0.014
	c0.248,0.105,0.645,0.213,0.938,0.26l0.042,0.006l0.028-0.031c0.541-0.525,0.962-1.271,1.174-2.045
	c0.113,0.018,0.904,0.131,1.014,0.143c0.017,0.814,0.236,1.646,0.618,2.279l0.018,0.033l0.043,0.008
	c0.281,0.035,0.698,0.035,0.973,0l0.04-0.008l0.021-0.033c0.38-0.633,0.598-1.467,0.617-2.287c0.109-0.012,0.852-0.117,0.961-0.135
	c0.221,0.785,0.643,1.525,1.186,2.053l0.029,0.023l0.037-0.002c0.295-0.045,0.693-0.148,0.942-0.25l0.034-0.02l0.014-0.035
	c0.104-0.367,0.154-0.768,0.154-1.18c0-0.4-0.059-0.807-0.154-1.195c0.1-0.037,0.82-0.35,0.92-0.396
	c0.424,0.695,1.024,1.309,1.672,1.678l0.033,0.014l0.039-0.014c0.258-0.107,0.623-0.316,0.846-0.492l0.033-0.02
	c0,0,0.002-0.088,0.002-0.107c0-0.721-0.227-1.521-0.605-2.225c0.086-0.066,0.678-0.527,0.763-0.598
	c0.591,0.564,1.331,0.996,2.054,1.184l0.039,0.01l0.031-0.025c0.22-0.176,0.521-0.473,0.691-0.688l0.027-0.035l-0.014-0.037
	c-0.178-0.721-0.609-1.461-1.176-2.053c0.066-0.084,0.545-0.713,0.609-0.803c0.717,0.395,1.543,0.619,2.283,0.605h0.041l0.025-0.029
	c0.176-0.227,0.381-0.58,0.486-0.848l0.018-0.035l-0.019-0.037c-0.354-0.637-0.962-1.24-1.655-1.678
	c0.041-0.098,0.324-0.794,0.365-0.891c0.789,0.2,1.643,0.207,2.363,0l0.035-0.014l0.016-0.037c0.105-0.253,0.213-0.646,0.256-0.938
	l0.006-0.039l-0.031-0.033c-0.521-0.539-1.266-0.957-2.039-1.18c0.016-0.109,0.123-0.851,0.133-0.963
	c0.82-0.011,1.656-0.232,2.291-0.615l0.033-0.019l0.004-0.045C44.99,25.371,45,25.192,45,25.018
	C45,24.844,44.99,24.672,44.975,24.534 M30.007,36.151c-6.195,0-11.239-5.043-11.239-11.241c0-6.197,5.044-11.237,11.239-11.237
	c6.198,0,11.241,5.04,11.241,11.237C41.248,31.108,36.205,36.151,30.007,36.151 M30.007,15.023c-5.45,0-9.887,4.436-9.887,9.887
	c0,5.454,4.437,9.888,9.887,9.888c5.454,0,9.889-4.434,9.889-9.888C39.896,19.459,35.461,15.023,30.007,15.023 M31.25,16.613
	c0.098-0.079,0.225-0.054,0.348-0.026c1.988,0.481,3.445,1.318,4.869,2.816c0.102,0.107,0.156,0.205,0.156,0.293
	c0,0.008-0.004,0.023-0.004,0.035c-0.029,0.138-0.182,0.208-0.318,0.276l-4.16,2.012c-0.163,0.079-0.316,0.087-0.436,0.012
	c-0.123-0.07-0.199-0.206-0.213-0.385l-0.335-4.61C31.143,16.816,31.172,16.681,31.25,16.613 M23.529,19.438h0.002
	c1.423-1.496,2.879-2.338,4.867-2.814c0.123-0.027,0.253-0.053,0.341,0.025c0.085,0.067,0.114,0.201,0.099,0.425l-0.336,4.607
	c-0.012,0.176-0.084,0.316-0.209,0.384c-0.121,0.071-0.279,0.068-0.438-0.007l-4.158-2.015c-0.135-0.067-0.294-0.14-0.321-0.277
	C23.363,19.673,23.409,19.563,23.529,19.438 M22.541,27.979c-0.179,0.122-0.313,0.166-0.416,0.13
	c-0.113-0.039-0.151-0.166-0.187-0.288c-0.588-1.962-0.588-3.643-0.006-5.624c0.049-0.166,0.122-0.265,0.211-0.297
	c0.134-0.044,0.274,0.051,0.398,0.138l3.823,2.602c0.145,0.094,0.229,0.226,0.229,0.371c0,0.139-0.084,0.273-0.223,0.374
	L22.541,27.979z M28.814,33.388c-0.092,0.076-0.219,0.053-0.345,0.02c-1.987-0.473-3.448-1.314-4.867-2.813
	c-0.104-0.108-0.153-0.201-0.153-0.285c0-0.014,0-0.026,0.002-0.041c0.02-0.133,0.181-0.21,0.315-0.276l4.16-2.016
	c0.163-0.077,0.32-0.079,0.442-0.01c0.119,0.074,0.195,0.208,0.208,0.383l0.336,4.618C28.927,33.187,28.895,33.321,28.814,33.388
	 M30,27.634c-1.49,0-2.702-1.215-2.702-2.7c0-0.911,0.454-1.756,1.215-2.256c0.25-0.17,0.589-0.096,0.754,0.153
	c0.166,0.253,0.099,0.59-0.154,0.755c-0.454,0.298-0.724,0.802-0.724,1.348c0,0.885,0.723,1.609,1.61,1.609
	c0.888,0,1.611-0.724,1.611-1.609c0-0.545-0.27-1.051-0.725-1.348c-0.252-0.169-0.319-0.504-0.152-0.755
	c0.165-0.249,0.504-0.323,0.754-0.155c0.758,0.502,1.215,1.346,1.215,2.258C32.703,26.419,31.49,27.634,30,27.634 M36.473,30.541
	c-1.418,1.493-2.869,2.331-4.867,2.812c-0.17,0.041-0.285,0.029-0.359-0.031c-0.104-0.09-0.089-0.264-0.08-0.414l0.332-4.612
	c0.021-0.179,0.092-0.313,0.217-0.388c0.123-0.066,0.281-0.062,0.436,0.015l4.162,2.011c0.193,0.099,0.297,0.192,0.318,0.294
	C36.65,30.344,36.564,30.444,36.473,30.541 M37.875,21.882c0.111,0.036,0.156,0.16,0.191,0.283c0.584,1.963,0.584,3.646,0,5.624
	c-0.049,0.171-0.115,0.264-0.207,0.3c-0.129,0.042-0.273-0.051-0.393-0.139l-3.826-2.599c-0.146-0.097-0.232-0.231-0.232-0.375
	c0-0.141,0.084-0.273,0.232-0.377l3.826-2.593C37.637,21.886,37.775,21.844,37.875,21.882"/>
</svg>
